<?xml version="1.0" encoding="UTF-8" standalone="no"?>
<svg
   role="img"
   width="52"
   height="52"
   viewBox="0 0 52 52"
   version="1.1"
   id="svg3"
   sodipodi:docname="b2again-icon.svg"
   inkscape:version="1.4 (e7c3feb1, 2024-10-09)"
   xmlns:inkscape="http://www.inkscape.org/namespaces/inkscape"
   xmlns:sodipodi="http://sodipodi.sourceforge.net/DTD/sodipodi-0.dtd"
   xmlns="http://www.w3.org/2000/svg"
   xmlns:svg="http://www.w3.org/2000/svg"
   xmlns:rdf="http://www.w3.org/1999/02/22-rdf-syntax-ns#"
   xmlns:cc="http://creativecommons.org/ns#"
   xmlns:dc="http://purl.org/dc/elements/1.1/">
  <defs
     id="defs3" />
  <sodipodi:namedview
     id="namedview3"
     pagecolor="#ffffff"
     bordercolor="#666666"
     borderopacity="1.0"
     inkscape:showpageshadow="2"
     inkscape:pageopacity="0.0"
     inkscape:pagecheckerboard="0"
     inkscape:deskcolor="#d1d1d1"
     inkscape:zoom="2.5876703"
     inkscape:cx="188.58662"
     inkscape:cy="27.631031"
     inkscape:window-width="1648"
     inkscape:window-height="1186"
     inkscape:window-x="935"
     inkscape:window-y="206"
     inkscape:window-maximized="0"
     inkscape:current-layer="svg3" />
  <title
     id="title1">b2again.org</title>
  <path
     fill="currentColor"
     d="m 26,0 a 26,26 0 1 0 0,52 26,26 0 0 0 0,-52 z m 20.27,39.66 a 24.47,24.47 0 0 1 -29.78,8.86 24.49,24.49 0 0 1 -13,-13 24.4,24.4 0 0 1 5.23,-26.8 24.46,24.46 0 0 1 26.79,-5.24 24.49,24.49 0 0 1 13,13 24.42,24.42 0 0 1 -2.25,23.17 z"
     id="path2" />
  <text
     xml:space="preserve"
     style="font-style:normal;font-variant:normal;font-weight:normal;font-stretch:normal;font-size:37.3333px;line-height:1.25;font-family:Papyrus;-inkscape-font-specification:'Papyrus, Normal';font-variant-ligatures:normal;font-variant-caps:normal;font-variant-numeric:normal;font-variant-east-asian:normal;text-align:center;text-anchor:middle"
     x="26.664911"
     y="42.122829"
     id="text4"><tspan
       sodipodi:role="line"
       id="tspan4"
       x="26.664911"
       y="42.122829">b2</tspan></text>
  <metadata
     id="metadata4">
    <rdf:RDF>
      <cc:Work
         rdf:about="">
        <dc:title>b2again.org</dc:title>
      </cc:Work>
    </rdf:RDF>
  </metadata>
</svg>
